<svg xmlns="http://www.w3.org/2000/svg" version="1.1" xmlns:xlink="http://www.w3.org/1999/xlink" xmlns:svgjs="http://svgjs.com/svgjs" width="1440" height="240" preserveAspectRatio="none" viewBox="0 0 1440 240">
    <g mask="url(&quot;#SvgjsMask1115&quot;)" fill="none">
        <path d="M 0,31 C 41.2,50.2 123.6,133 206,127 C 288.4,121 329.6,-5.6 412,1 C 494.4,7.6 535.6,145.4 618,160 C 700.4,174.6 741.6,59.8 824,74 C 906.4,88.2 947.6,242.4 1030,231 C 1112.4,219.6 1154,28.2 1236,17 C 1318,5.8 1399.2,143.4 1440,175L1440 240L0 240z" fill="rgba(255, 193, 7, 1)"></path>
        <path d="M 0,45 C 48,74.8 144,183.2 240,194 C 336,204.8 384,98.4 480,99 C 576,99.6 624,213 720,197 C 816,181 864,30.6 960,19 C 1056,7.4 1104,141 1200,139 C 1296,137 1392,35 1440,9L1440 240L0 240z" fill="rgba(0, 91, 151, 1)"></path>
    </g>
    <defs>
        <mask id="SvgjsMask1115">
            <rect width="1440" height="240" fill="#ffffff"></rect>
        </mask>
    </defs>
</svg>